<svg height="469pt" viewBox="0 -6 469.585 469" width="469pt" xmlns="http://www.w3.org/2000/svg"><path d="m199.140625 110.292969h.039063c20.710937-.007813 37.496093-16.800781 37.492187-37.511719-.007813-20.710938-16.800781-37.496094-37.511719-37.488281h-.015625c-9.90625 0-19.398437 3.964843-26.363281 11.007812-10.636719 10.722657-13.816406 26.773438-8.066406 40.738281 5.746094 13.964844 19.300781 23.128907 34.402344 23.253907zm0 0"/><path d="m327.75 75.292969h.59375c9.820312-.066407 19.203125-4.085938 26.027344-11.152344 6.902344-7.015625 10.726562-16.492187 10.628906-26.335937.023438-20.617188-16.617188-37.382813-37.234375-37.511719h-.015625c-20.710938-.007813-37.503906 16.777343-37.511719 37.488281-.007812 20.710938 16.777344 37.503906 37.488281 37.511719zm0 0"/><path d="m70.507812 75.160156c.007813 0 .015626-.050781.023438-.054687 20.46875 0 36.816406-16.492188 37.246094-37.429688-.039063-20.570312-16.660156-37.257812-37.226563-37.382812h-.019531c-15.109375.113281-28.675781 9.277343-34.425781 23.25-5.75 13.976562-2.558594 30.035156 8.09375 40.75 6.96875 6.988281 16.441406 10.898437 26.308593 10.867187zm0 0"/><path d="m269 224.746094v-12.453125c.109375-15.578125-5.996094-30.554688-16.960938-41.617188-10.867187-11.089843-25.734374-17.351562-41.261718-17.382812h-23.171875c-32.378907.140625-58.566407 26.410156-58.605469 58.792969v64.207031h96.238281c10.160157-21 25.761719-38.324219 43.761719-51.546875zm0 0"/><path d="m113 212.046875c-.03125-19.796875 7.871094-38.777344 21.941406-52.703125.757813-.753906 1.542969-1.5 2.328125-2.214844-8.527343-23.222656-30.582031-38.703125-55.316406-38.835937h-22.953125c-32.410156-.007813-58.757812 26.132812-59 58.542969v64.457031h113zm0 0"/><path d="m348.117188 199.542969c17.074218-.0625 34.003906 3.128906 49.882812 9.40625v-31.902344c.109375-15.507813-5.960938-30.421875-16.871094-41.449219-10.90625-11.023437-25.757812-17.25-41.269531-17.304687h-23.070313c-24.851562.179687-47.011718 15.675781-55.710937 38.957031.800781.734375 1.523437 1.511719 2.292969 2.285156 13.960937 14 21.75 33 21.628906 52.769532v2.667968c19.488281-10.152344 41.140625-15.445312 63.117188-15.429687zm0 0"/><path d="m359 317.292969v-41h-24v41c0 4.417969-3.582031 8-8 8h-41v24h41c4.417969 0 8 3.582031 8 8v41h24v-41c0-4.417969 3.582031-8 8-8h41v-24h-41c-4.417969 0-8-3.582031-8-8zm0 0"/><path d="m348.414062 215.542969c-66.917968 0-121.167968 54.25-121.167968 121.167969 0 66.921874 54.25 121.171874 121.167968 121.171874 66.921876 0 121.171876-54.25 121.171876-121.171874-.074219-66.890626-54.28125-121.09375-121.171876-121.167969zm75.585938 141.75c0 4.417969-3.582031 8-8 8h-41v41c0 4.417969-3.582031 8-8 8h-40c-4.417969 0-8-3.582031-8-8v-41h-41c-4.417969 0-8-3.582031-8-8v-40c0-4.417969 3.582031-8 8-8h41v-41c0-4.417969 3.582031-8 8-8h40c4.417969 0 8 3.582031 8 8v41h41c4.417969 0 8 3.582031 8 8zm0 0"/></svg>